<?xml version="1.0" encoding="UTF-8"?>
<svg version="1.1" xmlns="http://www.w3.org/2000/svg" width="179" height="228">
<path d="M0 0 C0.70102844 -0.0065712 1.40205688 -0.0131424 2.12432861 -0.01991272 C4.45886335 -0.03971526 6.79333309 -0.05133275 9.12792969 -0.0612793 C9.92719627 -0.06535482 10.72646286 -0.06943035 11.54994965 -0.07362938 C15.79241174 -0.09453435 20.03484121 -0.10880845 24.27734375 -0.11816406 C28.63136533 -0.12914889 32.98486449 -0.16344228 37.33870316 -0.20333576 C40.70710088 -0.22969356 44.07537881 -0.23787344 47.44387054 -0.24144554 C49.04640929 -0.24627395 50.64894406 -0.257779 52.25138092 -0.27648354 C69.23710652 -0.46218623 83.57515007 3.24606232 96.28808594 15.0715332 C103.54782744 22.66959275 105.82172046 30.94432757 105.62011719 41.2980957 C104.83506841 48.35396096 102.2709977 55.02826634 97.29980469 60.17700195 C98.35167969 60.96075195 99.40355469 61.74450195 100.48730469 62.55200195 C105.67069294 66.95735627 108.18180043 72.82298917 110.29980469 79.17700195 C111.14265581 90.87966561 108.67377404 98.98499111 103.29980469 109.17700195 C102.63980469 109.17700195 101.97980469 109.17700195 101.29980469 109.17700195 C101.29980469 109.83700195 101.29980469 110.49700195 101.29980469 111.17700195 C100.63980469 111.17700195 99.97980469 111.17700195 99.29980469 111.17700195 C99.06261719 111.76352539 98.82542969 112.35004883 98.58105469 112.9543457 C95.23931024 118.75145726 88.13584053 122.18131905 81.92480469 124.05200195 C80.38824402 124.44740356 78.84670236 124.82420073 77.29980469 125.17700195 C76.75187256 125.34828613 76.20394043 125.51957031 75.6394043 125.69604492 C72.31718843 126.3790007 69.01732663 126.35992126 65.63964844 126.38012695 C64.89453506 126.38582703 64.14942169 126.3915271 63.38172913 126.3973999 C61.80406097 126.4068324 60.22637327 126.41337693 58.64868164 126.41723633 C56.26965409 126.42687094 53.89151772 126.45787985 51.51269531 126.48950195 C40.41211284 126.56806991 30.96481614 125.42454896 20.92480469 120.23950195 C19.96832031 119.75610352 19.01183594 119.27270508 18.02636719 118.7746582 C15.19796937 117.11733054 12.73664138 115.37015498 10.29980469 113.17700195 C10.29980469 112.51700195 10.29980469 111.85700195 10.29980469 111.17700195 C9.66042969 110.90887695 9.02105469 110.64075195 8.36230469 110.36450195 C6.29980469 109.17700195 6.29980469 109.17700195 5.29980469 106.17700195 C4.63980469 106.17700195 3.97980469 106.17700195 3.29980469 106.17700195 C-7.20817558 92.51145126 -8.31295615 76.34055466 -8.12597656 59.8059082 C-8.12103781 58.10481655 -8.11774863 56.4037194 -8.11601257 54.70262146 C-8.108452 51.17721567 -8.08811876 47.65222757 -8.05688477 44.12695312 C-8.01685548 39.60086507 -7.99919405 35.07504376 -7.98957539 30.54879856 C-7.97964527 26.21779902 -7.95977817 21.88686457 -7.93847656 17.5559082 C-7.93338294 16.31735171 -7.93338294 16.31735171 -7.92818642 15.05377388 C-7.91667658 12.73742872 -7.89817774 10.42125679 -7.87719727 8.10498047 C-7.86735306 6.78756363 -7.85750885 5.47014679 -7.84736633 4.11280823 C-7.57757488 -1.2690627 -4.79448162 0.03707113 0 0 Z M17.29980469 24.17700195 C17.29980469 31.76700195 17.29980469 39.35700195 17.29980469 47.17700195 C28.18980469 47.17700195 39.07980469 47.17700195 50.29980469 47.17700195 C46.93092633 52.79179921 46.93092633 52.79179921 44.38183594 55.4387207 C43.85009766 56.00010742 43.31835938 56.56149414 42.77050781 57.13989258 C41.65355476 58.30157638 40.53636244 59.46303017 39.41894531 60.62426758 C36.34510138 63.4194865 36.34510138 63.4194865 35.29980469 67.17700195 C34.63980469 67.17700195 33.97980469 67.17700195 33.29980469 67.17700195 C32.72746094 67.8215332 32.15511719 68.46606445 31.56542969 69.13012695 C28.66382192 71.75157949 26.90648254 71.75932031 23.04980469 71.92700195 C21.43332031 72.01208008 21.43332031 72.01208008 19.78417969 72.09887695 C18.96433594 72.1246582 18.14449219 72.15043945 17.29980469 72.17700195 C16.71150598 80.11903447 18.52192506 86.70465242 23.54980469 92.98950195 C33.53847806 100.93503759 42.13594589 102.52684841 54.79980469 102.42700195 C55.78078125 102.43473633 56.76175781 102.4424707 57.77246094 102.45043945 C66.91437458 102.42609348 74.64598874 101.3815968 82.29980469 96.17700195 C85.06084297 93.17783216 85.69264228 91.23096025 85.61230469 87.17700195 C85.6084375 86.33137695 85.60457031 85.48575195 85.60058594 84.61450195 C85.26423431 81.88874331 84.91298901 80.40849611 83.29980469 78.17700195 C78.29769064 74.8344678 73.25816269 74.46829414 67.42480469 73.98950195 C66.10609375 73.86671875 66.10609375 73.86671875 64.76074219 73.74145508 C62.60806145 73.5425661 60.45403834 73.35829884 58.29980469 73.17700195 C57.80480469 64.26700195 57.80480469 64.26700195 57.29980469 55.17700195 C59.11480469 54.95012695 60.92980469 54.72325195 62.79980469 54.48950195 C68.41426913 53.55375788 73.06735762 52.10558102 77.29980469 48.17700195 C79.9438224 43.98124926 79.79413983 39.98629636 79.29980469 35.17700195 C78.34620601 31.635064 77.36500173 29.89925067 74.31594849 27.8318634 C67.57904948 24.22040837 62.17595204 23.49719759 54.60449219 23.6887207 C52.9943071 23.69933281 52.9943071 23.69933281 51.35159302 23.7101593 C47.95858928 23.7379115 44.56730067 23.80061541 41.17480469 23.86450195 C38.85972453 23.88960953 36.54461823 23.91241835 34.22949219 23.93286133 C28.58508776 23.9834022 22.94434159 24.08129579 17.29980469 24.17700195 Z " fill="#239F5E" transform="translate(59.7001953125,45.822998046875)"/>
<path d="M0 0 C0.99 0.33 1.98 0.66 3 1 C3.495 3.475 3.495 3.475 4 6 C3.08017334 5.67854004 2.16034668 5.35708008 1.21264648 5.02587891 C-3.93239491 3.5642423 -9.08753821 3.64521455 -14.40234375 3.5859375 C-16.0188961 3.55688828 -16.0188961 3.55688828 -17.66810608 3.5272522 C-21.0911583 3.46774245 -24.51424466 3.42118544 -27.9375 3.375 C-30.26629025 3.33679392 -32.59506676 3.29774067 -34.92382812 3.2578125 C-40.61581167 3.16047897 -46.30765889 3.08068219 -52 3 C-52 10.59 -52 18.18 -52 26 C-41.11 26 -30.22 26 -19 26 C-19.33 27.32 -19.66 28.64 -20 30 C-20.495 29.01 -20.495 29.01 -21 28 C-31.56 27.67 -42.12 27.34 -53 27 C-53 18.42 -53 9.84 -53 1 C-47.38677734 1.01740234 -47.38677734 1.01740234 -41.66015625 1.03515625 C-38.05281662 1.04294547 -34.44547791 1.049023 -30.83813477 1.05493164 C-28.32283105 1.05997363 -25.80753028 1.06680703 -23.29223633 1.07543945 C-19.68570225 1.08751094 -16.07920677 1.09322949 -12.47265625 1.09765625 C-11.34038101 1.10281754 -10.20810577 1.10797882 -9.04151917 1.11329651 C-8.00051559 1.11337204 -6.95951202 1.11344757 -5.88696289 1.11352539 C-4.96540909 1.115746 -4.04385529 1.11796661 -3.09437561 1.12025452 C-1.01191638 1.2337198 -1.01191638 1.2337198 0 0 Z " fill="#E5EFE9" transform="translate(129,67)"/>
<path d="M0 0 C2.49361571 1.20381448 4.68143083 2.45428722 7 4 C7.99 4.144375 8.98 4.28875 10 4.4375 C13.20827957 5.03905242 13.97959636 5.57551563 16 8 C23.9521429 11.97607145 37.28752316 10.21512694 46.06884766 10.24023438 C48.13093128 10.25002817 50.19205034 10.28125236 52.25390625 10.3125 C60.57548817 10.37652935 68.03920886 9.4937418 76 7 C75 9 75 9 72.85546875 9.81640625 C71.97503906 10.06261719 71.09460938 10.30882812 70.1875 10.5625 C69.31480469 10.81128906 68.44210938 11.06007812 67.54296875 11.31640625 C66.70378906 11.54199219 65.86460937 11.76757812 65 12 C64.44554199 12.17490967 63.89108398 12.34981934 63.31982422 12.5300293 C60.00455773 13.20166558 56.70890723 13.18297084 53.33984375 13.203125 C52.22217369 13.21167511 52.22217369 13.21167511 51.08192444 13.22039795 C49.50425628 13.22983045 47.92656858 13.23637497 46.34887695 13.24023438 C43.9698494 13.24986899 41.59171303 13.28087789 39.21289062 13.3125 C28.06357492 13.39141392 18.6144065 12.18767641 8.5 7.0625 C7.5203125 6.57910156 6.540625 6.09570312 5.53125 5.59765625 C2.96584233 3.97844061 1.62088885 2.53537681 0 0 Z " fill="#98C9B0" transform="translate(72,159)"/>
<path d="M0 0 C-1.32 0.99 -2.64 1.98 -4 3 C-3.34 3.66 -2.68 4.32 -2 5 C-4.31 5 -6.62 5 -9 5 C-9.33 9.95 -9.66 14.9 -10 20 C-6.8134375 19.9690625 -6.8134375 19.9690625 -3.5625 19.9375 C2.05490056 19.93179706 7.43972884 20.23306605 13 21 C13.33 22.32 13.66 23.64 14 25 C13.21238281 24.69191406 12.42476562 24.38382813 11.61328125 24.06640625 C7.14398777 22.74736072 2.81554808 22.34039593 -1.8125 21.9375 C-3.52770056 21.783881 -5.2425728 21.62653469 -6.95703125 21.46484375 C-7.70960205 21.399021 -8.46217285 21.33319824 -9.23754883 21.26538086 C-11 21 -11 21 -12 20 C-12.08631874 18.65732587 -12.10706473 17.31025678 -12.09765625 15.96484375 C-12.09443359 15.15595703 -12.09121094 14.34707031 -12.08789062 13.51367188 C-12.07951172 12.66353516 -12.07113281 11.81339844 -12.0625 10.9375 C-12.05798828 10.08349609 -12.05347656 9.22949219 -12.04882812 8.34960938 C-12.03700373 6.23304337 -12.01906769 4.11651315 -12 2 C-7.85907629 0.76113708 -4.34140593 -0.26311551 0 0 Z " fill="#C3DDCE" transform="translate(129,99)"/>
<path d="M0 0 C0.99 0.33 1.98 0.66 3 1 C3.495 3.475 3.495 3.475 4 6 C1.69 5.34 -0.62 4.68 -3 4 C-3 3.34 -3 2.68 -3 2 C-19.5 2 -36 2 -53 2 C-53 1.67 -53 1.34 -53 1 C-52.35076065 1.00222061 -51.7015213 1.00444122 -51.03260803 1.00672913 C-44.30112252 1.02878002 -37.56964719 1.04390577 -30.83813477 1.05493164 C-28.32283105 1.05997363 -25.80753028 1.06680703 -23.29223633 1.07543945 C-19.68570225 1.08751094 -16.07920677 1.09322949 -12.47265625 1.09765625 C-11.34038101 1.10281754 -10.20810577 1.10797882 -9.04151917 1.11329651 C-8.00051559 1.11337204 -6.95951202 1.11344757 -5.88696289 1.11352539 C-4.96540909 1.115746 -4.04385529 1.11796661 -3.09437561 1.12025452 C-1.01191638 1.2337198 -1.01191638 1.2337198 0 0 Z " fill="#A0C3B1" transform="translate(129,67)"/>
<path d="M0 0 C4.87549176 1.30108431 7.7234779 3.17085748 11.375 6.625 C12.24898437 7.44226562 13.12296875 8.25953125 14.0234375 9.1015625 C15.00183594 10.04128906 15.00183594 10.04128906 16 11 C15.67 11.66 15.34 12.32 15 13 C14.4225 12.360625 13.845 11.72125 13.25 11.0625 C11.01937599 9.01776132 9.92563609 8.41794801 7 8 C6.67 8.66 6.34 9.32 6 10 C5.01 8.68 4.02 7.36 3 6 C3.99 5.67 4.98 5.34 6 5 C5.195625 4.731875 4.39125 4.46375 3.5625 4.1875 C2.716875 3.795625 1.87125 3.40375 1 3 C0.67 2.01 0.34 1.02 0 0 Z " fill="#94C8AC" transform="translate(142,52)"/>
<path d="M0 0 C3.63 0 7.26 0 11 0 C8.75 5.625 8.75 5.625 5 8 C5 6.68 5 5.36 5 4 C4.34 3.67 3.68 3.34 3 3 C3.33 2.67 3.66 2.34 4 2 C2.68 1.34 1.36 0.68 0 0 Z " fill="#339864" transform="translate(98,94)"/>
<path d="M0 0 C2.63827703 2.63827703 2.35901928 4.00813914 2.4375 7.6875 C2.34946567 13.79121334 1.19394932 16.61098327 -3 21 C-3.99 21.33 -4.98 21.66 -6 22 C-6.99 21.34 -7.98 20.68 -9 20 C-8.15115234 19.51080078 -8.15115234 19.51080078 -7.28515625 19.01171875 C-6.18494141 18.35623047 -6.18494141 18.35623047 -5.0625 17.6875 C-4.33160156 17.25824219 -3.60070312 16.82898438 -2.84765625 16.38671875 C-0.70022588 15.04889746 -0.70022588 15.04889746 0 12 C0.068991 9.93854893 0.08467727 7.87498599 0.0625 5.8125 C0.04896484 4.18248047 0.04896484 4.18248047 0.03515625 2.51953125 C0.01775391 1.27236328 0.01775391 1.27236328 0 0 Z " fill="#BEDBCB" transform="translate(138,78)"/>
<path d="M0 0 C2.49361571 1.20381448 4.68143083 2.45428722 7 4 C7.99 4.144375 8.98 4.28875 10 4.4375 C13.27631405 5.05180888 13.92408921 5.54665089 16 8 C17.31963709 9.01800576 18.65009646 10.02248365 20 11 C15.89301565 10.37107066 12.59192495 9.02733127 8.875 7.1875 C7.84117188 6.68605469 6.80734375 6.18460938 5.7421875 5.66796875 C3.03109046 4.01891115 1.67220961 2.65823666 0 0 Z " fill="#BAD9C8" transform="translate(72,159)"/>
<path d="M0 0 C3.1037543 2.06916953 3.53219022 2.58194295 4.75 5.875 C5.01296875 6.55304688 5.2759375 7.23109375 5.546875 7.9296875 C6.06544044 10.29899512 5.75618591 11.72122356 5 14 C4.67 11.69 4.34 9.38 4 7 C3.01 7 2.02 7 1 7 C1 6.34 1 5.68 1 5 C-0.32 5 -1.64 5 -3 5 C-3 4.01 -3 3.02 -3 2 C-2.01 2 -1.02 2 0 2 C0 1.34 0 0.68 0 0 Z " fill="#85C2A1" transform="translate(158,65)"/>
<path d="M0 0 C0.99 0.33 1.98 0.66 3 1 C3.33 2.65 3.66 4.3 4 6 C1.69 5.34 -0.62 4.68 -3 4 C-3 3.34 -3 2.68 -3 2 C-7.29 2 -11.58 2 -16 2 C-16 1.67 -16 1.34 -16 1 C-14.92878906 1.01160156 -13.85757813 1.02320312 -12.75390625 1.03515625 C-11.35677257 1.04453299 -9.95963701 1.05363331 -8.5625 1.0625 C-7.85544922 1.07087891 -7.14839844 1.07925781 -6.41992188 1.08789062 C-4.61306441 1.09653588 -2.80612397 1.05220011 -1 1 C-0.67 0.67 -0.34 0.34 0 0 Z " fill="#7FBB9B" transform="translate(129,67)"/>
<path d="M0 0 C2.43929746 1.92576115 4.80090595 3.80090595 7 6 C5.68 8.64 4.36 11.28 3 14 C2.67 14 2.34 14 2 14 C1.93941406 13.32453125 1.87882813 12.6490625 1.81640625 11.953125 C1.73261719 11.06109375 1.64882812 10.1690625 1.5625 9.25 C1.48128906 8.36828125 1.40007812 7.4865625 1.31640625 6.578125 C1.03761535 4.30649548 0.61209423 2.20148177 0 0 Z " fill="#95C9AE" transform="translate(143,124)"/>
<path d="M0 0 C0.33 0 0.66 0 1 0 C1.28883414 4.06534057 0.57875609 6.33058355 -1.5 9.8125 C-1.9640625 10.60269531 -2.428125 11.39289063 -2.90625 12.20703125 C-3.44765625 13.09455078 -3.44765625 13.09455078 -4 14 C-4.66 14 -5.32 14 -6 14 C-6 12.35 -6 10.7 -6 9 C-5.34 9 -4.68 9 -4 9 C-4 8.01 -4 7.02 -4 6 C-3.02149805 4.97895449 -2.02019573 3.9793879 -1 3 C-0.67 2.01 -0.34 1.02 0 0 Z " fill="#9ECCB3" transform="translate(167,141)"/>
<path d="M0 0 C0.99 0 1.98 0 3 0 C3.03738281 0.58007812 3.07476562 1.16015625 3.11328125 1.7578125 C3.54393182 6.87495461 4.54183633 10.41887679 7 15 C6.67 15.66 6.34 16.32 6 17 C2.91099799 11.33492989 0.42335385 6.49142565 0 0 Z " fill="#A6D1BB" transform="translate(54,130)"/>
<path d="M0 0 C4.1937832 2.0968916 7.24277009 5.68679932 9 10 C8.54109375 9.6390625 8.0821875 9.278125 7.609375 8.90625 C6.99578125 8.4421875 6.3821875 7.978125 5.75 7.5 C5.14671875 7.0359375 4.5434375 6.571875 3.921875 6.09375 C1.78914405 4.67025581 1.78914405 4.67025581 -2 5 C-1.34 3.35 -0.68 1.7 0 0 Z " fill="#ACD5BF" transform="translate(155,104)"/>
<path d="M0 0 C0.33 0 0.66 0 1 0 C1 1.98 1 3.96 1 6 C0.236875 6.12375 -0.52625 6.2475 -1.3125 6.375 C-4.20267136 6.88102792 -4.20267136 6.88102792 -7 9 C-9.1875 8.625 -9.1875 8.625 -11 8 C-10.45730469 7.75765625 -9.91460937 7.5153125 -9.35546875 7.265625 C-5.28049475 5.35662817 -2.40723991 3.96486573 0 0 Z " fill="#AED4C0" transform="translate(144,138)"/>
<path d="M0 0 C-1.32 0.99 -2.64 1.98 -4 3 C-3.34 3.66 -2.68 4.32 -2 5 C-4.31 5 -6.62 5 -9 5 C-9.33 3.68 -9.66 2.36 -10 1 C-6.59437148 0.22157062 -3.49234244 -0.09978121 0 0 Z " fill="#7AC09A" transform="translate(129,99)"/>
<path d="M0 0 C2.475 0.99 2.475 0.99 5 2 C5 2.66 5 3.32 5 4 C6.2065625 4.185625 6.2065625 4.185625 7.4375 4.375 C8.7059375 4.684375 8.7059375 4.684375 10 5 C10.33 5.66 10.66 6.32 11 7 C3.16901408 5.04225352 3.16901408 5.04225352 0 2 C0 1.34 0 0.68 0 0 Z " fill="#329961" transform="translate(138,51)"/>
<path d="M0 0 C0.99 0.66 1.98 1.32 3 2 C3.66 2.33 4.32 2.66 5 3 C3.35 4.32 1.7 5.64 0 7 C0 5.68 0 4.36 0 3 C-0.66 2.67 -1.32 2.34 -2 2 C-1.34 1.34 -0.68 0.68 0 0 Z " fill="#6DBC93" transform="translate(103,95)"/>
<path d="M0 0 C1.65 0.33 3.3 0.66 5 1 C3.35 2.65 1.7 4.3 0 6 C-1.125 2.25 -1.125 2.25 0 0 Z " fill="#2D9D63" transform="translate(98,100)"/>
</svg>
