<?xml version="1.0" encoding="UTF-8"?>
<svg version="1.1" xmlns="http://www.w3.org/2000/svg" width="500" height="500">
<path d="M0 0 C1.03932175 -0.00744736 1.03932175 -0.00744736 2.09963989 -0.01504517 C4.40652446 -0.02971994 6.71333996 -0.03648256 9.02026367 -0.04199219 C10.62676495 -0.04774556 12.23326621 -0.05350327 13.83976746 -0.05926514 C17.22016724 -0.06979445 20.60054314 -0.07562239 23.98095703 -0.07910156 C28.28341697 -0.0845472 32.58555413 -0.10848148 36.8879137 -0.13707352 C40.21423711 -0.15584582 43.54048566 -0.1609135 46.86685753 -0.16243744 C48.45066757 -0.16543895 50.0344771 -0.17338147 51.61823463 -0.18662262 C68.98373857 -0.32127218 83.38916201 2.83098566 96.43432617 15.01269531 C99.47480169 18.37740665 101.53248282 22.0378797 103.37573242 26.16113281 C103.92293945 27.34255859 103.92293945 27.34255859 104.48120117 28.54785156 C107.5734811 37.58163005 105.14544018 46.76343563 101.37573242 55.16113281 C100.71573242 55.16113281 100.05573242 55.16113281 99.37573242 55.16113281 C99.04573242 57.14113281 98.71573242 59.12113281 98.37573242 61.16113281 C99.36573242 61.84175781 99.36573242 61.84175781 100.37573242 62.53613281 C101.03573242 63.07238281 101.69573242 63.60863281 102.37573242 64.16113281 C102.37573242 64.82113281 102.37573242 65.48113281 102.37573242 66.16113281 C103.86073242 66.65613281 103.86073242 66.65613281 105.37573242 67.16113281 C106.50854492 68.86816406 106.50854492 68.86816406 107.50073242 70.97363281 C107.99959961 72.00423828 107.99959961 72.00423828 108.50854492 73.05566406 C111.76456481 80.96104568 111.75630413 91.53701483 108.81323242 99.53613281 C103.16883703 111.4367287 93.66020011 119.66515388 81.37573242 124.16113281 C63.91476796 130.19310235 39.66616253 128.94075075 22.96166992 121.47753906 C20.3387698 120.14231649 17.81446369 118.81189856 15.37573242 117.16113281 C15.37573242 116.50113281 15.37573242 115.84113281 15.37573242 115.16113281 C14.79823242 115.07863281 14.22073242 114.99613281 13.62573242 114.91113281 C10.72179882 113.94315495 9.33832638 112.47418998 7.37573242 110.16113281 C7.37573242 109.50113281 7.37573242 108.84113281 7.37573242 108.16113281 C6.38573242 107.83113281 5.39573242 107.50113281 4.37573242 107.16113281 C-4.11690157 95.65498353 -7.79541669 84.61428587 -7.75366211 70.31396484 C-7.75541443 69.56352402 -7.75716675 68.81308319 -7.75897217 68.03990173 C-7.76334024 65.5828921 -7.7604724 63.12595556 -7.75708008 60.66894531 C-7.75775414 58.95498643 -7.75872502 57.24102765 -7.75997925 55.52706909 C-7.76144901 51.94804976 -7.75932331 48.36905548 -7.75463867 44.79003906 C-7.74891586 40.19308565 -7.75224099 35.5961903 -7.75821114 30.99923897 C-7.7618142 27.46663978 -7.76067979 23.93405452 -7.75808334 20.40145493 C-7.7574147 18.70530058 -7.75824031 17.00914498 -7.7605629 15.3129921 C-7.76308803 12.95260481 -7.75925204 10.59231367 -7.75366211 8.23193359 C-7.75568634 7.52651932 -7.75771057 6.82110504 -7.75979614 6.09431458 C-7.73031754 -0.58737917 -6.4514392 0.03500451 0 0 Z M17.37573242 26.16113281 C17.19132027 28.2980661 17.19132027 28.2980661 17.39916992 30.73144531 C17.45073242 31.62734375 17.50229492 32.52324219 17.55541992 33.44628906 C17.61987305 34.3834375 17.68432617 35.32058594 17.75073242 36.28613281 C17.80745117 37.23101562 17.86416992 38.17589844 17.92260742 39.14941406 C18.0643034 41.48739762 18.21573025 43.82434225 18.37573242 46.16113281 C21.29770932 47.62212126 23.87466718 47.27248183 27.13354492 47.25878906 C27.79659637 47.25737411 28.45964783 47.25595917 29.14279175 47.25450134 C31.26215105 47.24890035 33.38140501 47.23634782 35.50073242 47.22363281 C36.93692881 47.21861793 38.37312686 47.21405501 39.80932617 47.20996094 C43.33149587 47.19893064 46.85360387 47.1816654 50.37573242 47.16113281 C48.60088801 50.25299958 46.82310557 52.97532543 44.37963867 55.57128906 C43.82083008 56.16876953 43.26202148 56.76625 42.6862793 57.38183594 C42.10942383 57.98962891 41.53256836 58.59742188 40.93823242 59.22363281 C40.36524414 59.83529297 39.79225586 60.44695312 39.2019043 61.07714844 C38.09169701 62.25889958 36.9752157 63.4347956 35.85180664 64.60400391 C34.64862769 65.87325223 33.49454774 67.18889754 32.35620117 68.51660156 C29.69852005 70.72347287 27.52339392 70.96795957 24.12573242 71.41113281 C23.04807617 71.56066406 21.97041992 71.71019531 20.86010742 71.86425781 C19.6303418 72.01121094 19.6303418 72.01121094 18.37573242 72.16113281 C18.01981789 78.71259661 18.33475132 83.31309223 21.37573242 89.16113281 C21.66448242 89.88300781 21.95323242 90.60488281 22.25073242 91.34863281 C25.76657731 97.01304957 32.58890741 100.23987566 38.85400391 101.7421875 C44.11640976 102.61645301 49.43011964 102.48821783 54.75073242 102.47363281 C55.91862305 102.48974609 57.08651367 102.50585938 58.28979492 102.52246094 C66.62772372 102.52713466 73.99699569 101.67657732 81.31323242 97.47363281 C84.11706528 94.32994143 85.63840481 91.32121281 86.37573242 87.16113281 C85.68383995 82.94058872 84.91199989 79.74532827 81.37573242 77.16113281 C78.48365672 75.5146233 76.13415425 74.84098353 72.82885742 74.52832031 C71.98452148 74.44453125 71.14018555 74.36074219 70.27026367 74.27441406 C69.39756836 74.19578125 68.52487305 74.11714844 67.62573242 74.03613281 C66.73756836 73.94976562 65.8494043 73.86339844 64.93432617 73.77441406 C62.74880141 73.56291167 60.56234498 73.36107598 58.37573242 73.16113281 C58.37573242 67.55113281 58.37573242 61.94113281 58.37573242 56.16113281 C60.68573242 55.50113281 62.99573242 54.84113281 65.37573242 54.16113281 C71.13931872 52.02779916 76.48567555 49.94124655 79.37573242 44.16113281 C80.13495173 39.44144991 80.67388219 34.98434067 77.80151367 30.95019531 C70.74495259 24.57912873 63.97683847 23.85715528 54.79760742 23.89550781 C53.78982239 23.89359436 52.78203735 23.89168091 51.74371338 23.88970947 C49.62235259 23.88835271 47.50098335 23.8920135 45.37963867 23.90039062 C42.12294072 23.91114203 38.8667888 23.90045506 35.61010742 23.88769531 C33.5476062 23.88901612 31.48510532 23.89157688 29.42260742 23.89550781 C27.957034 23.88943512 27.957034 23.88943512 26.46185303 23.88323975 C25.56041565 23.88954407 24.65897827 23.89584839 23.73022461 23.90234375 C22.935578 23.90393494 22.1409314 23.90552612 21.32220459 23.90716553 C19.13962825 23.99078439 19.13962825 23.99078439 17.37573242 26.16113281 Z " fill="#189855" transform="translate(59.624267578125,181.8388671875)"/>
<path d="M0 0 C1.08558197 -0.00960754 2.17116394 -0.01921509 3.28964233 -0.02911377 C4.47490509 -0.03336365 5.66016785 -0.03761353 6.88134766 -0.04199219 C8.09682281 -0.04769226 9.31229797 -0.05339233 10.56460571 -0.05926514 C13.14885584 -0.06873845 15.73311818 -0.07525831 18.31738281 -0.07910156 C22.24387325 -0.08874067 26.16982548 -0.11971491 30.09619141 -0.15136719 C32.60790705 -0.15790368 35.11962644 -0.1631516 37.63134766 -0.16699219 C38.7963681 -0.17933899 39.96138855 -0.19168579 41.16171265 -0.20440674 C53.34677373 -0.17167157 63.29992406 2.47703849 72.92041016 10.16113281 C82.46106109 20.05807362 84.32502412 30.55488642 84.13134766 43.72753906 C83.7983188 53.58067048 79.79528315 60.30504546 72.89306641 67.18066406 C69.59123598 70.19965612 67.32244456 72.18728706 62.92041016 73.16113281 C69.0112701 84.21667739 69.0112701 84.21667739 75.60791016 94.97363281 C84.58762411 108.85137257 84.58762411 108.85137257 85.92041016 116.16113281 C81.91973099 116.43488969 77.92272122 116.63339909 73.91479492 116.76538086 C72.55510507 116.820414 71.19605817 116.89528494 69.83862305 116.9909668 C65.34329652 117.29968 61.28598122 117.33576671 56.92041016 116.16113281 C53.57569734 112.93524304 51.82260678 109.35874594 49.92041016 105.16113281 C49.2251282 103.99399391 48.511889 102.83701464 47.76806641 101.70019531 C47.17896484 100.73855469 46.58986328 99.77691406 45.98291016 98.78613281 C45.30744141 97.71105469 44.63197266 96.63597656 43.93603516 95.52832031 C42.53085168 93.1809014 41.28564252 90.92615258 40.09228516 88.48144531 C38.33682411 85.03140895 36.60167559 82.00194462 33.92041016 79.16113281 C29.48258702 77.80782656 25.51812228 77.73360165 20.92041016 78.16113281 C21.25041016 79.15113281 21.58041016 80.14113281 21.92041016 81.16113281 C22.01693475 83.65128526 22.06042227 86.11256496 22.05322266 88.60253906 C22.05465775 89.687761 22.05465775 89.687761 22.05612183 90.79490662 C22.05680158 92.32217496 22.05496157 93.84944621 22.05078125 95.37670898 C22.0454223 97.7183274 22.0507371 100.05975468 22.05712891 102.40136719 C22.05646824 103.88509157 22.05518732 105.36881583 22.05322266 106.85253906 C22.05524689 107.55464005 22.05727112 108.25674103 22.05935669 108.9801178 C22.03537792 113.93119728 22.03537792 113.93119728 20.92041016 116.16113281 C16.60792406 116.18999818 12.29546254 116.20788536 7.98291016 116.22363281 C6.75121094 116.23201172 5.51951172 116.24039063 4.25048828 116.24902344 C3.08066406 116.25224609 1.91083984 116.25546875 0.70556641 116.25878906 C-0.92046509 116.26664429 -0.92046509 116.26664429 -2.5793457 116.2746582 C-5.07958984 116.16113281 -5.07958984 116.16113281 -6.07958984 115.16113281 C-6.17743759 113.6832948 -6.2059075 112.20080013 -6.20657349 110.71972656 C-6.20939331 109.7605835 -6.21221313 108.80144043 -6.21511841 107.81323242 C-6.21309418 106.75241455 -6.21106995 105.69159668 -6.20898438 104.59863281 C-6.21073669 103.48818604 -6.21248901 102.37773926 -6.21429443 101.23364258 C-6.21871557 97.54279035 -6.21577403 93.85198558 -6.21240234 90.16113281 C-6.21307531 87.60904938 -6.21404527 85.05696602 -6.21530151 82.50488281 C-6.21677884 77.14810519 -6.2147174 71.79134476 -6.20996094 66.43457031 C-6.20451835 60.23329566 -6.20628102 54.03205388 -6.21178734 47.83078003 C-6.21686421 41.87579066 -6.21633691 35.92081154 -6.21340561 29.96582031 C-6.21273608 27.42675777 -6.21356566 24.88769439 -6.21588516 22.34863281 C-6.21841015 18.80694317 -6.21457326 15.26531765 -6.20898438 11.72363281 C-6.21100861 10.66281494 -6.21303284 9.60199707 -6.21511841 8.5090332 C-6.21229858 7.54989014 -6.20947876 6.59074707 -6.20657349 5.60253906 C-6.20619646 4.76408447 -6.20581944 3.92562988 -6.20543098 3.06176758 C-5.94651249 -0.84879371 -3.3268509 0.02367617 0 0 Z M21.92041016 25.16113281 C21.92041016 34.73113281 21.92041016 44.30113281 21.92041016 54.16113281 C27.39634766 54.00644531 27.39634766 54.00644531 32.98291016 53.84863281 C34.11994385 53.82373779 35.25697754 53.79884277 36.4284668 53.77319336 C42.29919521 53.56107297 46.7590322 53.04012724 51.92041016 50.16113281 C55.06919691 46.7701317 56.176696 44.13653739 56.35791016 39.59863281 C56.07829905 34.22288377 54.43100329 31.55552647 50.48291016 27.91113281 C41.85409589 23.67241703 31.2074482 25.16113281 21.92041016 25.16113281 Z " fill="#0D1D3A" transform="translate(290.07958984375,185.8388671875)"/>
<path d="M0 0 C30.36 0 60.72 0 92 0 C93.27137774 2.54275549 93.129425 4.34808201 93.1328125 7.19140625 C93.13410156 8.21814453 93.13539063 9.24488281 93.13671875 10.30273438 C93.13285156 11.37845703 93.12898438 12.45417969 93.125 13.5625 C93.12886719 14.64208984 93.13273437 15.72167969 93.13671875 16.83398438 C93.13542969 17.85943359 93.13414062 18.88488281 93.1328125 19.94140625 C93.13168457 20.88701416 93.13055664 21.83262207 93.12939453 22.80688477 C93 25 93 25 92 26 C90.40013064 26.15777323 88.79380128 26.2510569 87.1875 26.31640625 C86.19363281 26.35830078 85.19976562 26.40019531 84.17578125 26.44335938 C83.12777344 26.48267578 82.07976562 26.52199219 81 26.5625 C79.98292969 26.60568359 78.96585937 26.64886719 77.91796875 26.69335938 C73.37742407 26.87696291 68.84958334 27.00975467 64.30517578 27.00474548 C63.49799103 27.00406035 62.69080627 27.00337523 61.85916138 27.00266933 C61.24563812 27.00178845 60.63211487 27.00090757 60 27 C60.00222061 28.10025009 60.00444122 29.20050018 60.00672913 30.33409119 C60.02695967 40.6792282 60.04197171 51.02436123 60.05181217 61.36951351 C60.05704122 66.68865213 60.06413927 72.00777484 60.07543945 77.3269043 C60.08626755 82.45563985 60.09227667 87.58436006 60.09487724 92.71310616 C60.09673163 94.67441614 60.10035251 96.63572524 60.10573006 98.59702873 C60.11293946 101.33415447 60.11399099 104.07121597 60.11352539 106.80834961 C60.11712067 107.62761932 60.12071594 108.44688904 60.12442017 109.29098511 C60.11405216 114.88594784 60.11405216 114.88594784 59 116 C57.08541718 116.09971786 55.16717683 116.13080589 53.25 116.1328125 C52.0846875 116.13410156 50.919375 116.13539063 49.71875 116.13671875 C48.4915625 116.13285156 47.264375 116.12898438 46 116.125 C44.15921875 116.13080078 44.15921875 116.13080078 42.28125 116.13671875 C41.1159375 116.13542969 39.950625 116.13414062 38.75 116.1328125 C37.67234375 116.13168457 36.5946875 116.13055664 35.484375 116.12939453 C33 116 33 116 32 115 C31.87483363 112.26194796 31.81392327 109.54788281 31.79467773 106.80834961 C31.78477814 105.94988937 31.77487854 105.09142914 31.76467896 104.20695496 C31.73296691 101.35544641 31.70826836 98.50392118 31.68359375 95.65234375 C31.66303259 93.68078669 31.64203635 91.70923412 31.62062073 89.73768616 C31.56531347 84.53778715 31.5159425 79.3378478 31.46777344 74.13787842 C31.41762143 68.83602286 31.36190256 63.5342262 31.30664062 58.23242188 C31.19895327 47.82166485 31.09753195 37.41085677 31 27 C30.13721436 27.01047363 29.27442871 27.02094727 28.38549805 27.03173828 C25.18189479 27.06583983 21.9783841 27.09090857 18.7746582 27.10986328 C17.38855952 27.1199157 16.00248201 27.1335597 14.61645508 27.15087891 C12.6233025 27.17515952 10.62999467 27.18542031 8.63671875 27.1953125 C6.83787231 27.21102295 6.83787231 27.21102295 5.00268555 27.22705078 C2 27 2 27 -1 25 C-1.35644531 22.69335938 -1.35644531 22.69335938 -1.328125 19.84375 C-1.32296875 18.82152344 -1.3178125 17.79929688 -1.3125 16.74609375 C-1.291875 15.67488281 -1.27125 14.60367188 -1.25 13.5 C-1.24484375 12.42878906 -1.2396875 11.35757813 -1.234375 10.25390625 C-1.15421895 2.3084379 -1.15421895 2.3084379 0 0 Z " fill="#142340" transform="translate(184,186)"/>
<path d="M0 0 C0.84899872 -0.00014603 1.69799744 -0.00029205 2.57272339 -0.0004425 C5.38094634 0.00025456 8.18910308 0.00803733 10.99731445 0.01586914 C12.94358789 0.01773405 14.88986179 0.01915761 16.83613586 0.02015686 C21.96043187 0.02397627 27.08469956 0.03380166 32.20898438 0.04486084 C37.43725196 0.05508733 42.66552412 0.05965714 47.89379883 0.06469727 C58.1535789 0.07542442 68.41333052 0.09301659 78.6730957 0.11352539 C78.6730957 8.03352539 78.6730957 15.95352539 78.6730957 24.11352539 C68.4430957 24.11352539 58.2130957 24.11352539 47.6730957 24.11352539 C47.6730957 23.78352539 47.6730957 23.45352539 47.6730957 23.11352539 C48.51606201 23.08846924 49.35902832 23.06341309 50.22753906 23.03759766 C53.34551244 22.94264384 56.46331074 22.84340091 59.58105469 22.74121094 C60.93223718 22.69781316 62.28347623 22.65614169 63.63476562 22.61621094 C65.57346272 22.55862588 67.51195846 22.49438242 69.45043945 22.42993164 C70.61824951 22.39327393 71.78605957 22.35661621 72.98925781 22.31884766 C75.59089365 22.41276351 75.59089365 22.41276351 76.6730957 21.11352539 C77.0030957 14.84352539 77.3330957 8.57352539 77.6730957 2.11352539 C48.6330957 2.11352539 19.5930957 2.11352539 -10.3269043 2.11352539 C-10.3269043 9.04352539 -10.3269043 15.97352539 -10.3269043 23.11352539 C0.2330957 22.78352539 10.7930957 22.45352539 21.6730957 22.11352539 C23.29872957 25.36479312 22.8021853 28.93890514 22.78662109 32.51049805 C22.78676712 33.37885788 22.78691315 34.24721771 22.7870636 35.14189148 C22.78636531 38.02048211 22.7785768 40.89900853 22.77075195 43.77758789 C22.76888748 45.77013107 22.76746371 47.76267471 22.76646423 49.75521851 C22.76264139 55.00611633 22.75281308 60.25698661 22.74176025 65.50787354 C22.73154114 70.86339953 22.72696554 76.21892996 22.72192383 81.57446289 C22.71119062 92.08749584 22.69411697 102.60050833 22.6730957 113.11352539 C24.6530957 112.61852539 24.6530957 112.61852539 26.6730957 112.11352539 C32.2830957 112.11352539 37.8930957 112.11352539 43.6730957 112.11352539 C44.0030957 83.07352539 44.3330957 54.03352539 44.6730957 24.11352539 C45.0030957 24.11352539 45.3330957 24.11352539 45.6730957 24.11352539 C45.6730957 53.81352539 45.6730957 83.51352539 45.6730957 114.11352539 C37.4230957 114.11352539 29.1730957 114.11352539 20.6730957 114.11352539 C20.6730957 84.41352539 20.6730957 54.71352539 20.6730957 24.11352539 C10.1130957 24.11352539 -0.4469043 24.11352539 -11.3269043 24.11352539 C-11.3269043 16.52352539 -11.3269043 8.93352539 -11.3269043 1.11352539 C-7.52251833 -0.15460326 -3.9626439 -0.01774797 0 0 Z " fill="#060A1F" transform="translate(196.326904296875,186.886474609375)"/>
<path d="M0 0 C1.03932175 -0.00744736 1.03932175 -0.00744736 2.09963989 -0.01504517 C4.40652446 -0.02971994 6.71333996 -0.03648256 9.02026367 -0.04199219 C10.62676495 -0.04774556 12.23326621 -0.05350327 13.83976746 -0.05926514 C17.22016724 -0.06979445 20.60054314 -0.07562239 23.98095703 -0.07910156 C28.28341697 -0.0845472 32.58555413 -0.10848148 36.8879137 -0.13707352 C40.21423711 -0.15584582 43.54048566 -0.1609135 46.86685753 -0.16243744 C48.45066757 -0.16543895 50.0344771 -0.17338147 51.61823463 -0.18662262 C63.07395498 -0.27544859 74.23079572 0.24325307 84.37573242 6.16113281 C84.37573242 6.49113281 84.37573242 6.82113281 84.37573242 7.16113281 C82.33348606 7.04599133 80.29193083 6.91855955 78.25073242 6.78613281 C77.1137793 6.71652344 75.97682617 6.64691406 74.80541992 6.57519531 C70.67875055 6.07698694 67.09148377 5.01900849 63.37573242 3.16113281 C60.65813134 3.0893146 57.96713855 3.06813775 55.25073242 3.09863281 C54.11958008 3.10540039 54.11958008 3.10540039 52.96557617 3.11230469 C51.10226116 3.12409782 49.23898687 3.14203339 47.37573242 3.16113281 C47.37573242 2.83113281 47.37573242 2.50113281 47.37573242 2.16113281 C29.88573242 1.83113281 12.39573242 1.50113281 -5.62426758 1.16113281 C-5.29426758 29.87113281 -4.96426758 58.58113281 -4.62426758 88.16113281 C-8.1929201 82.80815402 -7.77195298 76.57831483 -7.75366211 70.31396484 C-7.75541443 69.56352402 -7.75716675 68.81308319 -7.75897217 68.03990173 C-7.76334024 65.5828921 -7.7604724 63.12595556 -7.75708008 60.66894531 C-7.75775414 58.95498643 -7.75872502 57.24102765 -7.75997925 55.52706909 C-7.76144901 51.94804976 -7.75932331 48.36905548 -7.75463867 44.79003906 C-7.74891586 40.19308565 -7.75224099 35.5961903 -7.75821114 30.99923897 C-7.7618142 27.46663978 -7.76067979 23.93405452 -7.75808334 20.40145493 C-7.7574147 18.70530058 -7.75824031 17.00914498 -7.7605629 15.3129921 C-7.76308803 12.95260481 -7.75925204 10.59231367 -7.75366211 8.23193359 C-7.75568634 7.52651932 -7.75771057 6.82110504 -7.75979614 6.09431458 C-7.73031754 -0.58737917 -6.4514392 0.03500451 0 0 Z " fill="#93B5A2" transform="translate(59.624267578125,181.8388671875)"/>
<path d="M0 0 C2.98095703 -0.2487793 2.98095703 -0.2487793 6.7578125 -0.07421875 C7.42086395 -0.04777786 8.08391541 -0.02133698 8.76705933 0.00590515 C10.88727985 0.09376252 13.00580447 0.20286989 15.125 0.3125 C16.56113692 0.37574955 17.99733547 0.43761594 19.43359375 0.49804688 C22.95658582 0.6493141 26.47836332 0.8196543 30 1 C30.495 1.99 30.495 1.99 31 3 C27.93165459 4.0227818 25.83766572 4.13361304 22.625 4.125 C21.22121094 4.12886719 21.22121094 4.12886719 19.7890625 4.1328125 C14.18342623 3.93632628 8.59255717 3.43019671 3 3 C3 12.57 3 22.14 3 32 C6.96 31.505 6.96 31.505 11 31 C13.67997612 30.86686016 16.3115553 30.91349603 19 30.9375 C20.01900391 30.94426758 20.01900391 30.94426758 21.05859375 30.95117188 C22.70576874 30.9627717 24.35289726 30.98069801 26 31 C21.02964805 34.31356797 17.41832517 34.3319933 11.5625 34.625 C10.69044922 34.6765625 9.81839844 34.728125 8.91992188 34.78125 C8.08138672 34.82507813 7.24285156 34.86890625 6.37890625 34.9140625 C5.6113501 34.9548291 4.84379395 34.9955957 4.05297852 35.03759766 C2 35 2 35 -1 34 C-1.19247045 29.64050622 -1.37115801 25.28073105 -1.53710938 20.92016602 C-1.59549775 19.43693922 -1.65764593 17.95385545 -1.72363281 16.47094727 C-1.81784811 14.33896935 -1.89851575 12.20684219 -1.9765625 10.07421875 C-2.02893066 8.79119873 -2.08129883 7.50817871 -2.13525391 6.1862793 C-2 3 -2 3 0 0 Z " fill="#424252" transform="translate(309,208)"/>
<path d="M0 0 C9.31073134 -0.06985741 18.62137088 -0.12299123 27.9323082 -0.15543652 C32.25688764 -0.17101747 36.58128629 -0.19211533 40.90576172 -0.22631836 C45.08792113 -0.25918454 49.26990788 -0.27690976 53.45218658 -0.28463173 C55.03879764 -0.29012677 56.62540046 -0.30085557 58.21193695 -0.31719017 C69.68487789 -0.43049379 80.83767921 0.07197954 91 6 C91 6.33 91 6.66 91 7 C88.95775363 6.88485851 86.91619841 6.75742674 84.875 6.625 C83.73804688 6.55539063 82.60109375 6.48578125 81.4296875 6.4140625 C77.30301813 5.91585413 73.71575135 4.85787567 70 3 C67.28239892 2.92818179 64.59140612 2.90700494 61.875 2.9375 C60.74384766 2.94426758 60.74384766 2.94426758 59.58984375 2.95117188 C57.72652873 2.96296501 55.86325445 2.98090058 54 3 C54 2.67 54 2.34 54 2 C36.18 1.67 18.36 1.34 0 1 C0 0.67 0 0.34 0 0 Z " fill="#62A780" transform="translate(53,182)"/>
<path d="M0 0 C0.9607695 0.00007553 1.921539 0.00015106 2.91142273 0.00022888 C3.94588028 0.00539017 4.98033783 0.01055145 6.04614258 0.01586914 C7.63789055 0.01799156 7.63789055 0.01799156 9.26179504 0.02015686 C12.65478318 0.02575933 16.0477056 0.03831225 19.44067383 0.05102539 C21.739501 0.05604007 24.03832921 0.06060303 26.3371582 0.06469727 C31.97585254 0.07572956 37.61450849 0.0924701 43.25317383 0.11352539 C43.25317383 0.44352539 43.25317383 0.77352539 43.25317383 1.11352539 C42.69163101 1.12383286 42.1300882 1.13414032 41.55152893 1.14476013 C35.72823917 1.25260224 29.90511119 1.36721747 24.08203125 1.48583984 C21.9062843 1.52926046 19.73050169 1.5709301 17.5546875 1.61083984 C14.43454215 1.66837041 11.3145775 1.73211362 8.19458008 1.79711914 C7.2154213 1.81383163 6.23626251 1.83054413 5.22743225 1.84776306 C3.87614479 1.87768089 3.87614479 1.87768089 2.49755859 1.90820312 C1.30175926 1.93151955 1.30175926 1.93151955 0.08180237 1.95530701 C-1.76534 1.91753204 -1.76534 1.91753204 -2.74682617 3.11352539 C-2.83352049 4.60224399 -2.85386111 6.09497039 -2.84448242 7.58618164 C-2.84198486 8.39579346 -2.8394873 9.20540527 -2.83691406 10.03955078 C-2.82781006 11.0745874 -2.81870605 12.10962402 -2.80932617 13.17602539 C-2.78870117 16.45540039 -2.76807617 19.73477539 -2.74682617 23.11352539 C6.82317383 23.44352539 16.39317383 23.77352539 26.25317383 24.11352539 C26.25317383 24.44352539 26.25317383 24.77352539 26.25317383 25.11352539 C15.36317383 25.11352539 4.47317383 25.11352539 -6.74682617 25.11352539 C-7.07682617 17.19352539 -7.40682617 9.27352539 -7.74682617 1.11352539 C-4.84242856 0.14539285 -3.01864377 -0.00792295 0 0 Z " fill="#659F7E" transform="translate(80.746826171875,204.886474609375)"/>
<path d="M0 0 C2.79776866 4.19665299 1.90394248 7.20150159 1 12 C-0.36953255 16.19989982 -1.80218341 19.227638 -5.60986328 21.68286133 C-9.62161822 23.24151161 -13.02395047 23.28873037 -17.2421875 23.07421875 C-18.39474533 23.03455742 -18.39474533 23.03455742 -19.57058716 22.99409485 C-22.0062299 22.90686076 -24.44029151 22.7975338 -26.875 22.6875 C-28.53379889 22.62418583 -30.1926538 22.5623217 -31.8515625 22.50195312 C-35.90188258 22.35140637 -39.95093345 22.18105067 -44 22 C-44 21.67 -44 21.34 -44 21 C-43.23445801 20.98541748 -42.46891602 20.97083496 -41.68017578 20.95581055 C-38.16131431 20.88065298 -34.6433323 20.78421764 -31.125 20.6875 C-29.92101562 20.66494141 -28.71703125 20.64238281 -27.4765625 20.61914062 C-19.06036719 20.36756957 -10.98047934 19.90243285 -4 14.8125 C-0.68964206 10.15730915 0 5.72701483 0 0 Z " fill="#599E74" transform="translate(145,263)"/>
<path d="M0 0 C0.90875448 2.49193054 1.08393372 3.73031131 0.28515625 6.296875 C-3.60957315 14.11122026 -8.89073545 21.18387551 -17 25 C-17.66 25 -18.32 25 -19 25 C-18.67 26.32 -18.34 27.64 -18 29 C-18.66 29 -19.32 29 -20 29 C-20 28.34 -20 27.68 -20 27 C-20.99 26.67 -21.98 26.34 -23 26 C-23 24.68 -23 23.36 -23 22 C-21.02 22.99 -21.02 22.99 -19 24 C-19 23.34 -19 22.68 -19 22 C-18.01 22 -17.02 22 -16 22 C-16 21.34 -16 20.68 -16 20 C-15.01 20 -14.02 20 -13 20 C-12.67 19.01 -12.34 18.02 -12 17 C-11.34 16.34 -10.68 15.68 -10 15 C-9.01 15 -8.02 15 -7 15 C-7.33 13.68 -7.66 12.36 -8 11 C-7.34 10.67 -6.68 10.34 -6 10 C-5.67 9.01 -5.34 8.02 -5 7 C-4.34 7 -3.68 7 -3 7 C-3 5.68 -3 4.36 -3 3 C-2.01 3 -1.02 3 0 3 C0 2.01 0 1.02 0 0 Z " fill="#4B485A" transform="translate(372,234)"/>
<path d="M0 0 C2 1 2 1 2.703125 2.93359375 C4.10024437 9.33040456 4.32087569 14.78889459 2 21 C-1.26437732 25.38359241 -4.85075601 27.28358534 -10 29 C-13.4375 29.1875 -13.4375 29.1875 -16 29 C-13.21885144 26.21885144 -10.27313955 25.95654165 -6.5078125 25.07421875 C-3.16204469 23.64106276 -1.88183298 22.10177987 0 19 C0.51830095 15.82164643 0.51830095 15.82164643 0.3125 12.5 C0.28800781 11.3965625 0.26351563 10.293125 0.23828125 9.15625 C0.06935908 6.03441405 0.06935908 6.03441405 -0.58203125 3.15625 C-0.71996094 2.4446875 -0.85789062 1.733125 -1 1 C-0.67 0.67 -0.34 0.34 0 0 Z " fill="#0C0E25" transform="translate(346,213)"/>
<path d="M0 0 C-2.78394033 1.04397762 -4.4632646 0.93761988 -7.46484375 0.53344727 C-12.66681455 -0.16278279 -17.82181557 -0.12506737 -23.0625 -0.09765625 C-24.6103418 -0.09553383 -24.6103418 -0.09553383 -26.18945312 -0.09336853 C-29.45966589 -0.08780642 -32.7298082 -0.07526102 -36 -0.0625 C-38.22786359 -0.0574801 -40.45572826 -0.05291805 -42.68359375 -0.04882812 C-48.12241955 -0.03784942 -53.56120474 -0.02114938 -59 0 C-59 -0.66 -59 -1.32 -59 -2 C-52.16831191 -2.16902634 -45.33645087 -2.32876186 -38.50439453 -2.48217773 C-36.18240493 -2.53539876 -33.86046224 -2.59071115 -31.53857422 -2.64819336 C-28.1924857 -2.73066232 -24.84629807 -2.80549698 -21.5 -2.87890625 C-20.4694751 -2.90594131 -19.4389502 -2.93297638 -18.37719727 -2.96083069 C-3.27048478 -3.27048478 -3.27048478 -3.27048478 0 0 Z " fill="#0D1428" transform="translate(346,190)"/>
<path d="M0 0 C0.33 0.66 0.66 1.32 1 2 C1.66 2 2.32 2 3 2 C3.33 3.32 3.66 4.64 4 6 C-4.91 6 -13.82 6 -23 6 C-23.33 4.68 -23.66 3.36 -24 2 C-23.34 2 -22.68 2 -22 2 C-21.34 2.66 -20.68 3.32 -20 4 C-17.13321229 4.0617462 -14.41365899 3.99849633 -11.5625 3.8125 C-10.78583984 3.78091797 -10.00917969 3.74933594 -9.20898438 3.71679688 C-4.8765748 3.56784476 -4.8765748 3.56784476 -1.25366211 1.46362305 C-0.63309937 0.73912964 -0.63309937 0.73912964 0 0 Z " fill="#070C20" transform="translate(371,295)"/>
<path d="M0 0 C3.91327088 1.35059791 6.59720322 3.06848436 9.6875 5.8125 C10.83798828 6.81216797 10.83798828 6.81216797 12.01171875 7.83203125 C14.12045759 10.13134374 15.03889586 12.05501243 16 15 C15.01 15 14.02 15 13 15 C12.67 13.68 12.34 12.36 12 11 C11.34 11 10.68 11 10 11 C10 10.34 10 9.68 10 9 C8.88625 9.020625 7.7725 9.04125 6.625 9.0625 C3 9 3 9 1 8 C0.40644386 5.35139573 0.25790731 2.70802678 0 0 Z " fill="#328C62" transform="translate(144,189)"/>
<path d="M0 0 C0.66 0.33 1.32 0.66 2 1 C2 12.88 2 24.76 2 37 C-5.92 37 -13.84 37 -22 37 C-21.67 36.34 -21.34 35.68 -21 35 C-14.07 35 -7.14 35 0 35 C0 23.45 0 11.9 0 0 Z " fill="#05071A" transform="translate(308,264)"/>
<path d="M0 0 C0.33 0 0.66 0 1 0 C1 4.29 1 8.58 1 13 C0.34 13 -0.32 13 -1 13 C-1 13.66 -1 14.32 -1 15 C-2.0625 16.5625 -2.0625 16.5625 -4 18 C-7.6875 18.6875 -7.6875 18.6875 -11 19 C-11 19.66 -11 20.32 -11 21 C-11.66 21 -12.32 21 -13 21 C-13 20.34 -13 19.68 -13 19 C-15.31 19 -17.62 19 -20 19 C-20 18.67 -20 18.34 -20 18 C-19.443125 17.90203125 -18.88625 17.8040625 -18.3125 17.703125 C-12.89522555 16.64163203 -7.51732065 15.31486839 -3 12 C-1.28371003 9.29245345 -0.69166818 6.91668175 -0.375 3.75 C-0.25125 2.5125 -0.1275 1.275 0 0 Z " fill="#5EA27A" transform="translate(139,218)"/>
<path d="M0 0 C1.95903745 0.47627975 3.91721097 0.95611423 5.875 1.4375 C6.96554688 1.70433594 8.05609375 1.97117187 9.1796875 2.24609375 C12 3 12 3 14 4 C14 4.66 14 5.32 14 6 C15.32 6.33 16.64 6.66 18 7 C17.67 7.33 17.34 7.66 17 8 C17.99 8.66 18.98 9.32 20 10 C13.31812115 9.29664433 6.56650444 7.1387537 1.375 2.8125 C0 1 0 1 0 0 Z " fill="#429168" transform="translate(76,297)"/>
<path d="M0 0 C1.485 0.99 1.485 0.99 3 2 C3 2.66 3 3.32 3 4 C3.99 4.33 4.98 4.66 6 5 C7.1328125 6.70703125 7.1328125 6.70703125 8.125 8.8125 C8.62386719 9.84310547 8.62386719 9.84310547 9.1328125 10.89453125 C11.0420611 15.53004925 11.12363875 19.7742461 11.0625 24.75 C11.05798828 25.44738281 11.05347656 26.14476562 11.04882812 26.86328125 C11.0371002 28.57555803 11.01916653 30.28779033 11 32 C10.67 32 10.34 32 10 32 C9.96132812 30.87464844 9.96132812 30.87464844 9.921875 29.7265625 C9.55976916 23.19219802 8.55273914 17.92737648 5.83984375 11.9609375 C5 10 5 10 5 8 C4.34 8 3.68 8 3 8 C0 2.25 0 2.25 0 0 Z " fill="#619778" transform="translate(159,244)"/>
<path d="M0 0 C0.99 0 1.98 0 3 0 C3 7.59 3 15.18 3 23 C-7.23 23 -17.46 23 -28 23 C-28 22.67 -28 22.34 -28 22 C-27.15703369 21.97494385 -26.31406738 21.9498877 -25.44555664 21.92407227 C-22.32758326 21.82911845 -19.20978497 21.72987552 -16.09204102 21.62768555 C-14.74085853 21.58428777 -13.38961947 21.5426163 -12.03833008 21.50268555 C-10.09963299 21.44510048 -8.16113724 21.38085702 -6.22265625 21.31640625 C-5.05484619 21.27974854 -3.88703613 21.24309082 -2.68383789 21.20532227 C-0.08220205 21.29923812 -0.08220205 21.29923812 1 20 C1.15620555 18.58672053 1.25056173 17.1664541 1.31640625 15.74609375 C1.35830078 14.89208984 1.40019531 14.03808594 1.44335938 13.15820312 C1.48267578 12.26037109 1.52199219 11.36253906 1.5625 10.4375 C1.60568359 9.53580078 1.64886719 8.63410156 1.69335938 7.70507812 C1.79978142 5.47021515 1.90179988 3.23523692 2 1 C1.34 0.67 0.68 0.34 0 0 Z " fill="#090418" transform="translate(272,188)"/>
<path d="M0 0 C0.66 0 1.32 0 2 0 C1.46982819 3.94977998 -0.28577076 5.51542222 -3.25 8.0625 C-4.01828125 8.73410156 -4.7865625 9.40570313 -5.578125 10.09765625 C-7.98607162 11.98905949 -10.25736307 13.63316297 -13 15 C-13.99 14.67 -14.98 14.34 -16 14 C-14.75 12 -14.75 12 -13 10 C-11.68 10 -10.36 10 -9 10 C-9 9.34 -9 8.68 -9 8 C-7.35 7.34 -5.7 6.68 -4 6 C-4 5.34 -4 4.68 -4 4 C-3.34 4 -2.68 4 -2 4 C-2 3.34 -2 2.68 -2 2 C-1.34 2 -0.68 2 0 2 C0 1.34 0 0.68 0 0 Z " fill="#5A9370" transform="translate(160,289)"/>
<path d="M0 0 C0.33 0 0.66 0 1 0 C1 7.59 1 15.18 1 23 C6.61 23 12.22 23 18 23 C18 23.33 18 23.66 18 24 C16.08574219 23.98259766 16.08574219 23.98259766 14.1328125 23.96484375 C12.46354313 23.95546583 10.79427217 23.94636563 9.125 23.9375 C8.28324219 23.92912109 7.44148438 23.92074219 6.57421875 23.91210938 C5.76855469 23.90888672 4.96289062 23.90566406 4.1328125 23.90234375 C3.38918457 23.89710693 2.64555664 23.89187012 1.87939453 23.88647461 C-0.09132568 23.88213364 -0.09132568 23.88213364 -2 25 C-2 22.36 -2 19.72 -2 17 C-1.67 17 -1.34 17 -1 17 C-0.67 11.39 -0.34 5.78 0 0 Z " fill="#0A112A" transform="translate(287,276)"/>
<path d="M0 0 C2.80973113 3.41892062 5.35240012 6.90564634 7.75 10.625 C8.67039062 12.03652344 8.67039062 12.03652344 9.609375 13.4765625 C11 16 11 16 11 19 C10.34 19 9.68 19 9 19 C5.71736165 15.47116377 3.57127763 12.59296539 2 8 C1.62875 7.319375 1.2575 6.63875 0.875 5.9375 C0 4 0 4 0 0 Z " fill="#62606C" transform="translate(354,263)"/>
<path d="M0 0 C2.49617831 3.74426746 2.26063055 6.67375072 2.1875 11 C2.18685547 11.72445312 2.18621094 12.44890625 2.18554688 13.1953125 C2.15907756 16.38339447 2.0144479 18.95665629 1 22 C0.34 22 -0.32 22 -1 22 C-2.36534076 17.23562911 -1.71274115 13.00574651 -1.0625 8.1875 C-0.96259766 7.39923828 -0.86269531 6.61097656 -0.75976562 5.79882812 C-0.51363759 3.86496497 -0.25778782 1.93234344 0 0 Z " fill="#090E23" transform="translate(371,215)"/>
<path d="M0 0 C3.27209025 4.90813538 2.54763144 10.2626055 2 16 C0.96164867 19.81481249 -0.38192218 23.3954427 -2 27 C-2.66 26.67 -3.32 26.34 -4 26 C-3.01 22.535 -3.01 22.535 -2 19 C-1.34 19 -0.68 19 0 19 C0 12.73 0 6.46 0 0 Z " fill="#7CA88B" transform="translate(163,210)"/>
<path d="M0 0 C4.62 0 9.24 0 14 0 C14 0.33 14 0.66 14 1 C8.06 1.495 8.06 1.495 2 2 C2.33 6.29 2.66 10.58 3 15 C2.01 14.34 1.02 13.68 0 13 C-0.41996896 8.64352194 -0.12895366 4.38442431 0 0 Z " fill="#79AA8D" transform="translate(76,252)"/>
<path d="M0 0 C0.66 0 1.32 0 2 0 C2.625 1.875 2.625 1.875 3 4 C2.34 4.66 1.68 5.32 1 6 C0.36719662 9.62543605 -0.02176682 13.25393145 -0.4375 16.91015625 C-0.7159375 18.43962891 -0.7159375 18.43962891 -1 20 C-1.66 20.33 -2.32 20.66 -3 21 C-2.91621094 20.26394531 -2.83242187 19.52789062 -2.74609375 18.76953125 C-2.64425781 17.79371094 -2.54242188 16.81789063 -2.4375 15.8125 C-2.33308594 14.84957031 -2.22867188 13.88664062 -2.12109375 12.89453125 C-2.00241249 10.05766623 -2.32234361 7.74576329 -3 5 C-2.34 5 -1.68 5 -1 5 C-1.33 4.01 -1.66 3.02 -2 2 C-1.34 1.34 -0.68 0.68 0 0 Z " fill="#1C894F" transform="translate(148,256)"/>
<path d="M0 0 C1.32 0.66 2.64 1.32 4 2 C4 2.66 4 3.32 4 4 C4.66 4.33 5.32 4.66 6 5 C5.67 7.64 5.34 10.28 5 13 C2.38275905 10.63202009 0.67138271 8.10399646 -1 5 C-1 4.34 -1 3.68 -1 3 C-0.34 3 0.32 3 1 3 C0.67 2.01 0.34 1.02 0 0 Z " fill="#3F4053" transform="translate(328,265)"/>
<path d="M0 0 C0.66 0.33 1.32 0.66 2 1 C1.67 1.66 1.34 2.32 1 3 C0.93003986 4.70702735 0.91559846 6.41668003 0.9375 8.125 C0.94652344 9.03507813 0.95554687 9.94515625 0.96484375 10.8828125 C0.97644531 11.58148438 0.98804687 12.28015625 1 13 C4.47325181 14.1577506 7.36067448 14.06866652 11 14 C11 14.66 11 15.32 11 16 C7.04 16 3.08 16 -1 16 C-1.02685095 13.52076199 -1.04676547 11.0418116 -1.0625 8.5625 C-1.07506836 7.50192383 -1.07506836 7.50192383 -1.08789062 6.41992188 C-1.09653588 4.61306441 -1.05220011 2.80612397 -1 1 C-0.67 0.67 -0.34 0.34 0 0 Z " fill="#229459" transform="translate(121,238)"/>
<path d="M0 0 C2.7930115 4.18951725 1.91461658 7.20875168 1 12 C-0.0625 15.0625 -0.0625 15.0625 -1 17 C-2.32 17 -3.64 17 -5 17 C-5 17.66 -5 18.32 -5 19 C-6.32 18.67 -7.64 18.34 -9 18 C-8.071875 17.505 -7.14375 17.01 -6.1875 16.5 C-2.23956721 13.86804481 -1.0137315 10.52280209 0 6 C0.2535421 2.6652951 0.2535421 2.6652951 0 0 Z " fill="#66A27A" transform="translate(145,263)"/>
<path d="M0 0 C1.32 0.66 2.64 1.32 4 2 C2.5484451 3.67257355 1.08855591 5.33791758 -0.375 7 C-1.18710938 7.928125 -1.99921875 8.85625 -2.8359375 9.8125 C-3.55007812 10.534375 -4.26421875 11.25625 -5 12 C-5.66 12 -6.32 12 -7 12 C-7 11.01 -7 10.02 -7 9 C-6.34 9 -5.68 9 -5 9 C-4.5978125 8.1646875 -4.5978125 8.1646875 -4.1875 7.3125 C-2.89877353 4.80287477 -1.47073522 2.40665764 0 0 Z " fill="#499A6E" transform="translate(97,240)"/>
<path d="M0 0 C2.15489329 1.53993553 4.03127195 3.21440944 6 5 C5.01 6.485 5.01 6.485 4 8 C3.46890625 7.59007812 2.9378125 7.18015625 2.390625 6.7578125 C1.68421875 6.21898437 0.9778125 5.68015625 0.25 5.125 C-0.44609375 4.59132812 -1.1421875 4.05765625 -1.859375 3.5078125 C-3.84722603 2.10761086 -5.79843386 1.02144735 -8 0 C-4.55442687 -1.14852438 -3.41628713 -1.11227953 0 0 Z " fill="#63A27B" transform="translate(133,206)"/>
<path d="M0 0 C1.37562854 1.28965176 2.70766393 2.62689293 4 4 C4 4.66 4 5.32 4 6 C3.34 6 2.68 6 2 6 C1.67 6.66 1.34 7.32 1 8 C0.67 7.01 0.34 6.02 0 5 C-3.00847418 3.77479736 -3.00847418 3.77479736 -6 3 C-4 2 -2 1 0 0 Z " fill="#4C9D72" transform="translate(143,255)"/>
<path d="M0 0 C3 2 3 2 3.6875 4.1875 C4.05943877 7.5349489 4.24924828 10.63514825 4 14 C2.484375 15.7109375 2.484375 15.7109375 1 17 C1.01740234 15.91332031 1.01740234 15.91332031 1.03515625 14.8046875 C1.08231311 9.75216677 1.07377564 4.96621233 0 0 Z " fill="#257A49" transform="translate(138,212)"/>
<path d="M0 0 C2.475 0.495 2.475 0.495 5 1 C5.66 3.31 6.32 5.62 7 8 C6.34 8.66 5.68 9.32 5 10 C4.16121545 8.71186658 3.32913217 7.41936744 2.5 6.125 C2.0359375 5.40570313 1.571875 4.68640625 1.09375 3.9453125 C0 2 0 2 0 0 Z " fill="#4C4D5C" transform="translate(338,286)"/>
<path d="M0 0 C0.33 1.32 0.66 2.64 1 4 C2.32 4.33 3.64 4.66 5 5 C4 8 4 8 2 11 C0.68 8.36 -0.64 5.72 -2 3 C-1.34 3 -0.68 3 0 3 C0 2.01 0 1.02 0 0 Z " fill="#363A4B" transform="translate(335,275)"/>
<path d="M0 0 C0.99 0 1.98 0 3 0 C2.41463247 3.66060821 0.916761 5.54535164 -1.5625 8.25 C-2.20316406 8.95640625 -2.84382813 9.6628125 -3.50390625 10.390625 C-3.99761719 10.92171875 -4.49132812 11.4528125 -5 12 C-5.61328125 10.140625 -5.61328125 10.140625 -6 8 C-4.1875 5.75 -4.1875 5.75 -2 4 C-1.34 4 -0.68 4 0 4 C0 2.68 0 1.36 0 0 Z " fill="#548E6C" transform="translate(107,229)"/>
<path d="M0 0 C2.62400522 2.37409996 4.44568209 4.81364829 6 8 C5.6875 10.3125 5.6875 10.3125 5 12 C4.34 12 3.68 12 3 12 C2.49440092 10.56445975 1.9957251 9.1264798 1.5 7.6875 C1.2215625 6.88699219 0.943125 6.08648437 0.65625 5.26171875 C0 3 0 3 0 0 Z " fill="#070F2A" transform="translate(352,264)"/>
<path d="M0 0 C0.33 0 0.66 0 1 0 C1.07347656 1.26457031 1.07347656 1.26457031 1.1484375 2.5546875 C1.22320312 3.65039062 1.29796875 4.74609375 1.375 5.875 C1.44460937 6.96554687 1.51421875 8.05609375 1.5859375 9.1796875 C1.73253491 12.13046474 1.73253491 12.13046474 4 14 C3.625 16.125 3.625 16.125 3 18 C1.1028999 16.43283036 0.09666648 15.26583283 -0.75 12.9375 C-1.12188043 8.56790495 -0.54764557 4.33903802 0 0 Z " fill="#1B824C" transform="translate(75,253)"/>
<path d="M0 0 C0.66 0.33 1.32 0.66 2 1 C3.19156496 6.30788029 2.83536335 10.70936543 2 16 C1.67 16 1.34 16 1 16 C0.93941406 15.33613281 0.87882812 14.67226562 0.81640625 13.98828125 C0.29346819 8.4349315 0.29346819 8.4349315 -0.625 2.9375 C-0.74875 2.298125 -0.8725 1.65875 -1 1 C-0.67 0.67 -0.34 0.34 0 0 Z " fill="#13152C" transform="translate(346,213)"/>
<path d="M0 0 C1.43861294 0.08746284 2.87597508 0.19565348 4.3125 0.3125 C5.11300781 0.37050781 5.91351563 0.42851562 6.73828125 0.48828125 C9.36272334 1.08206694 10.30820672 1.95780294 12 4 C9.36 4.33 6.72 4.66 4 5 C3.67 4.01 3.34 3.02 3 2 C2.01 1.34 1.02 0.68 0 0 Z " fill="#52525E" transform="translate(341,187)"/>
<path d="M0 0 C1.65 0 3.3 0 5 0 C4.375 2.4375 4.375 2.4375 3 5 C-0.125 5.8125 -0.125 5.8125 -3 6 C-2.34 5.67 -1.68 5.34 -1 5 C-0.34444881 2.47266765 -0.34444881 2.47266765 0 0 Z " fill="#328D5E" transform="translate(141,300)"/>
<path d="M0 0 C1 3 1 3 0.00390625 5.26171875 C-0.47175781 6.06222656 -0.94742188 6.86273438 -1.4375 7.6875 C-1.91058594 8.49574219 -2.38367188 9.30398438 -2.87109375 10.13671875 C-3.24363281 10.75160156 -3.61617187 11.36648438 -4 12 C-4.33 12 -4.66 12 -5 12 C-5 10.35 -5 8.7 -5 7 C-4.01 6.67 -3.02 6.34 -2 6 C-2 4.35 -2 2.7 -2 1 C-1.34 0.67 -0.68 0.34 0 0 Z " fill="#6DA27F" transform="translate(168,277)"/>
<path d="M0 0 C1.98 0.99 1.98 0.99 4 2 C4 1.34 4 0.68 4 0 C4.99 0 5.98 0 7 0 C6.67 0.99 6.34 1.98 6 3 C5.34 3 4.68 3 4 3 C4.33 4.32 4.66 5.64 5 7 C4.34 7 3.68 7 3 7 C3 6.34 3 5.68 3 5 C2.01 4.67 1.02 4.34 0 4 C0 2.68 0 1.36 0 0 Z " fill="#474357" transform="translate(349,256)"/>
<path d="M0 0 C3.09592835 3.5087188 4.74194623 6.49197399 6 11 C4.68 11 3.36 11 2 11 C0.85185003 8.70370006 0.69230191 6.92301914 0.4375 4.375 C0.35371094 3.55773437 0.26992188 2.74046875 0.18359375 1.8984375 C0.12300781 1.27195312 0.06242187 0.64546875 0 0 Z " fill="#5A5C6B" transform="translate(368,286)"/>
<path d="M0 0 C3 1 3 1 4.25 3.3125 C5.0275526 6.09873015 4.98726527 7.33438378 4 10 C0 4.5 0 4.5 0 0 Z " fill="#0D1227" transform="translate(365,285)"/>
<path d="M0 0 C1.89213369 2.38573379 3.02391783 4.07175348 4 7 C4.66 7.33 5.32 7.66 6 8 C5.67 8.99 5.34 9.98 5 11 C5 10.34 5 9.68 5 9 C4.01 8.67 3.02 8.34 2 8 C0.25 6.1875 0.25 6.1875 -1 4 C-0.6875 1.75 -0.6875 1.75 0 0 Z " fill="#649D81" transform="translate(62,281)"/>
<path d="M0 0 C0.103125 0.639375 0.20625 1.27875 0.3125 1.9375 C0.539375 2.618125 0.76625 3.29875 1 4 C1.99 4.33 2.98 4.66 4 5 C4.33 6.32 4.66 7.64 5 9 C2.69 7.35 0.38 5.7 -2 4 C-1.34 2.68 -0.68 1.36 0 0 Z " fill="#2C7E52" transform="translate(155,239)"/>
<path d="M0 0 C0.33 0.66 0.66 1.32 1 2 C0.01 2 -0.98 2 -2 2 C-2 2.66 -2 3.32 -2 4 C-2.66 4 -3.32 4 -4 4 C-4 3.34 -4 2.68 -4 2 C-6.31 2 -8.62 2 -11 2 C-11 1.67 -11 1.34 -11 1 C-9.5437328 0.63743142 -8.08488815 0.28520207 -6.625 -0.0625 C-5.40683594 -0.35833984 -5.40683594 -0.35833984 -4.1640625 -0.66015625 C-2 -1 -2 -1 0 0 Z " fill="#4B976D" transform="translate(130,235)"/>
<path d="M0 0 C2.5 2.25 2.5 2.25 5 5 C5 6.32 5 7.64 5 9 C3.5 7.625 3.5 7.625 2 6 C2 5.34 2 4.68 2 4 C1.34 4 0.68 4 0 4 C0 2.68 0 1.36 0 0 Z " fill="#4C9670" transform="translate(154,196)"/>
<path d="M0 0 C0.6875 1.625 0.6875 1.625 1 4 C-0.4375 7.25 -0.4375 7.25 -2 10 C-2.33 10 -2.66 10 -3 10 C-3 7.69 -3 5.38 -3 3 C-2.01 3 -1.02 3 0 3 C0 2.01 0 1.02 0 0 Z " fill="#595666" transform="translate(372,234)"/>
<path d="M0 0 C1.32 0 2.64 0 4 0 C3 3 3 3 0 5 C-0.99 4.67 -1.98 4.34 -3 4 C-1.75 2 -1.75 2 0 0 Z " fill="#508E6B" transform="translate(147,299)"/>
<path d="M0 0 C0.639375 0.804375 1.27875 1.60875 1.9375 2.4375 C3.40603502 4.2750504 3.40603502 4.2750504 5 6 C5.04063832 7.66617115 5.042721 9.33388095 5 11 C1.7089159 7.39042389 0.45336079 4.87362847 0 0 Z " fill="#559275" transform="translate(55,270)"/>
<path d="M0 0 C1.32 1.65 2.64 3.3 4 5 C3.67 5.66 3.34 6.32 3 7 C1.35 6.01 -0.3 5.02 -2 4 C-1 1 -1 1 0 0 Z " fill="#56A278" transform="translate(79,268)"/>
<path d="M0 0 C2.64752004 2.57784846 4.94432065 4.91648098 7 8 C6.401875 7.690625 5.80375 7.38125 5.1875 7.0625 C2.91043228 5.89790296 2.91043228 5.89790296 0 5 C0 3.35 0 1.7 0 0 Z " fill="#6B6B7C" transform="translate(361,195)"/>
<path d="M0 0 C1.39195915 4.17587745 -0.17676781 6.13474776 -2 10 C-2.66 9.67 -3.32 9.34 -4 9 C-3.34 6.69 -2.68 4.38 -2 2 C-1.34 2 -0.68 2 0 2 C0 1.34 0 0.68 0 0 Z " fill="#6FA987" transform="translate(163,227)"/>
<path d="M0 0 C0.99 0.495 0.99 0.495 2 1 C2 1.66 2 2.32 2 3 C4.475 3.99 4.475 3.99 7 5 C7 5.99 7 6.98 7 8 C6.34 8 5.68 8 5 8 C0 2.52380952 0 2.52380952 0 0 Z " fill="#3C3B4C" transform="translate(358,274)"/>
<path d="M0 0 C3.375 -0.125 3.375 -0.125 7 0 C7.66 0.66 8.32 1.32 9 2 C6.21176345 3.0326802 5.1322726 3.04509293 2.25 2.0625 C1.5075 1.711875 0.765 1.36125 0 1 C0 0.67 0 0.34 0 0 Z " fill="#04091F" transform="translate(337,188)"/>
</svg>
